Coordinates
version=1
nRows=12
nColumns=24
inDegrees=yes

Units are S.I. units (second, meters, Newtons, ...)
Angles are in degrees.

endheader
time	pelvis_tilt	pelvis_list	pelvis_rotation	pelvis_tx	pelvis_ty	pelvis_tz	hip_flexion_r	hip_adduction_r	hip_rotation_r	knee_angle_r	ankle_angle_r	subtalar_angle_r	mtp_angle_r	hip_flexion_l	hip_adduction_l	hip_rotation_l	knee_angle_l	ankle_angle_l	subtalar_angle_l	mtp_angle_l	lumbar_extension	lumbar_bending	lumbar_rotation
      1.43716667	     -1.24920172	      1.07226928	     -2.62104628	      0.44577628	      1.08775973	      0.25178122	     15.57033145	     -4.30475110	     -4.81366529	    -60.28284064	      4.06503489	     -2.81352179	      6.67142659	      7.40223076	      3.03426227	     -0.09725322	    -12.53688048	      7.96905661	      3.81980890	      2.72249483	    -15.69127338	     -4.69336096	     -2.58729128
      1.44133333	     -1.24400885	      0.96434610	     -2.51510436	      0.45063012	      1.08833695	      0.25122333	     15.92753622	     -4.19298859	     -4.99506909	    -59.64395212	      4.37883208	     -2.59771085	      6.71325905	      6.94285656	      2.96413451	      0.03454648	    -12.18714401	      8.01969903	      3.84762107	      2.71468848	    -15.66180780	     -4.49483225	     -2.71572274
      1.44550000	     -1.26325786	      0.84525661	     -2.40980005	      0.45549360	      1.08883313	      0.25069765	     16.29777043	     -4.06453867	     -5.17766144	    -58.96864101	      4.66980690	     -2.45080922	      6.73683856	      6.52544795	      2.87308705	      0.12431889	    -11.87276374	      8.06811048	      3.90399539	      2.71072990	    -15.58724083	     -4.30329700	     -2.77052961
      1.44966667	     -1.26001813	      0.74352650	     -2.30306118	      0.46031998	      1.08930345	      0.25015632	     16.64287733	     -3.96539191	     -5.36878203	    -58.28151744	      4.96717013	     -2.27868363	      6.76243674	      6.08367142	      2.80495919	      0.23773113	    -11.55140221	      8.13549312	      3.93728560	      2.70559992	    -15.54830182	     -4.12509331	     -2.86970661
      1.45383333	     -1.28315119	      0.64338532	     -2.21557297	      0.46513850	      1.08968589	      0.24967246	     17.01709712	     -3.85721072	     -5.53537517	    -57.58138666	      5.23930409	     -2.19398099	      6.77821678	      5.66823825	      2.73199917	      0.33396430	    -11.22280590	      8.19706109	      3.99643148	      2.70257609	    -15.49173624	     -3.93708575	     -2.92961933
      1.45800000	     -1.27961981	      0.53923410	     -2.10083620	      0.46994574	      1.09008873	      0.24914128	     17.34015192	     -3.75997229	     -5.74073310	    -56.83690448	      5.49037058	     -2.07256505	      6.80666002	      5.22909861	      2.66209971	      0.49722997	    -10.90454847	      8.27768297	      3.95815706	      2.69150273	    -15.45267107	     -3.75706736	     -3.11847662
      1.46216667	     -1.29365989	      0.43309219	     -2.00615271	      0.47473621	      1.09040739	      0.24867548	     17.68112379	     -3.64785329	     -5.91967676	    -56.07708903	      5.74118205	     -2.04802447	      6.82000789	      4.82335552	      2.57871737	      0.58054551	    -10.61348706	      8.33821113	      3.99128287	      2.68603652	    -15.39125719	     -3.58326269	     -3.16782798
      1.46633333	     -1.33029750	      0.34016445	     -1.92005710	      0.47952917	      1.09063223	      0.24823334	     18.04537097	     -3.54952214	     -6.08997176	    -55.30967884	      5.98070625	     -2.04413191	      6.82833751	      4.44086664	      2.50779012	      0.67061597	    -10.31984314	      8.41728183	      4.02949110	      2.68241832	    -15.31699829	     -3.41776162	     -3.22336024
      1.47050000	     -1.33967150	      0.24785857	     -1.82383722	      0.48427875	      1.09087701	      0.24778803	     18.36859994	     -3.45541416	     -6.27109296	    -54.51232269	      6.17957259	     -2.07223849	      6.83640890	      4.02813775	      2.44244604	      0.82287047	    -10.01812181	      8.49421473	      3.97844595	      2.66851912	    -15.27220816	     -3.25273324	     -3.39179093
      1.47466667	     -1.38899344	      0.16471999	     -1.75350477	      0.48903546	      1.09098793	      0.24741431	     18.73905140	     -3.36114219	     -6.42525055	    -53.71552740	      6.40713327	     -2.12154360	      6.83825971	      3.67098889	      2.37529523	      0.88179050	     -9.74249097	      8.57922003	      4.02989746	      2.66633837	    -15.18196964	     -3.11035233	     -3.40436534
      1.47883333	     -1.41616954	      0.07189042	     -1.66123434	      0.49375728	      1.09110626	      0.24701475	     19.06577626	     -3.26242451	     -6.59914119	    -52.87855070	      6.58304435	     -2.20585798	      6.83408206	      3.30593145	      2.29972340	      0.97694072	     -9.49858472	      8.68036538	      4.03305855	      2.66145288	    -15.11744582	     -2.95460596	     -3.47186114
      1.48300000	     -1.45396124	     -0.00892602	     -1.58541483	      0.49847060	      1.09117213	      0.24666102	     19.40370802	     -3.16858481	     -6.75006910	    -52.03260108	      6.76036517	     -2.32022720	      6.82644802	      2.94916287	      2.23509833	      1.06412843	     -9.24496495	      8.77320939	      4.04192800	      2.65706990	    -15.04519968	     -2.81525758	     -3.53148382
